<svg width="1200" height="630" viewBox="0 0 1200 630" xmlns="http://www.w3.org/2000/svg"><mask id="satori_om-id"><rect x="0" y="0" width="1200" height="630" fill="#fff"/></mask><rect x="0" y="0" width="1200" height="630" fill="white"/><mask id="satori_om-id-0"><rect x="42" y="42" width="190" height="24" fill="#fff"/></mask><clipPath id="satori_cp-id-0-0"><rect x="42" y="42" width="24" height="24"/></clipPath><mask id="satori_om-id-0-0"><rect x="42" y="42" width="24" height="24" fill="#fff"/></mask><image x="42" y="42" width="24" height="24" href="data:image/svg+xml;utf8,%3Csvg  xmlns=%22http://www.w3.org/2000/svg%22 fill-rule=%22evenodd%22 clip-rule=%22evenodd%22 width=%22Infinity%22 height=%22NaN%22%3E%3Cpath d=%22M24 24.001c-.045 0-7.457.003-12 0h12zm-12 0c-4.551.003-11.979 0-12 0h12zm-12-12C-.032 3.353 3.365.008 12 .001c8.635.007 12.032 3.352 12 12 .032 8.648-3.365 11.994-12 12-8.635-.006-12.032-3.352-12-12zm24-12H12c4.543-.003 11.955 0 12 0zm-12 0c-4.551-.003-11.979 0-12 0h12z%22%3E%3C/path%3E%3C/svg%3E" preserveAspectRatio="none" clip-path="url(#satori_cp-id-0-0)" mask="url(#satori_om-id-0-0)"/><mask id="satori_om-id-0-0-0"><rect x="42" y="42" width="0" height="24" fill="#fff"/></mask><mask id="satori_om-id-0-1"><rect x="74" y="42" width="158" height="24" fill="#fff"/></mask><path fill="black" d="M78.2 60.7L75.3 60.7L75.3 46.2L78.3 46.2L78.3 51.6L78.4 51.6Q78.6 51.2 79.0 50.7Q79.3 50.3 80.0 50.0Q80.6 49.7 81.5 49.7L81.5 49.7Q82.7 49.7 83.7 50.3Q84.7 50.9 85.3 52.2Q85.9 53.4 85.9 55.3L85.9 55.3Q85.9 57.1 85.3 58.4Q84.7 59.6 83.7 60.3Q82.7 60.9 81.5 60.9L81.5 60.9Q80.6 60.9 80.0 60.6Q79.4 60.3 79.0 59.9Q78.6 59.4 78.4 59.0L78.4 59.0L78.2 59.0L78.2 60.7ZM78.2 55.3L78.2 55.3Q78.2 56.2 78.5 57.0Q78.8 57.7 79.3 58.1Q79.8 58.5 80.5 58.5L80.5 58.5Q81.3 58.5 81.8 58.1Q82.3 57.7 82.5 56.9Q82.8 56.2 82.8 55.3L82.8 55.3Q82.8 54.3 82.6 53.6Q82.3 52.9 81.8 52.5Q81.3 52.1 80.5 52.1L80.5 52.1Q79.8 52.1 79.3 52.5Q78.8 52.9 78.5 53.6Q78.2 54.3 78.2 55.3ZM90.7 60.9L90.7 60.9Q89.7 60.9 88.8 60.6Q88.0 60.2 87.6 59.5Q87.1 58.8 87.1 57.7L87.1 57.7Q87.1 56.8 87.4 56.1Q87.7 55.5 88.3 55.2Q88.9 54.8 89.6 54.6Q90.4 54.4 91.2 54.3L91.2 54.3Q92.1 54.2 92.7 54.1Q93.3 54.0 93.6 53.9Q93.8 53.7 93.8 53.3L93.8 53.3L93.8 53.3Q93.8 52.6 93.4 52.2Q93.0 51.9 92.2 51.9L92.2 51.9Q91.4 51.9 90.9 52.2Q90.4 52.6 90.3 53.1L90.3 53.1L87.5 52.9Q87.7 51.9 88.3 51.2Q88.9 50.5 89.9 50.1Q90.9 49.7 92.2 49.7L92.2 49.7Q93.1 49.7 94.0 49.9Q94.8 50.1 95.4 50.5Q96.1 51.0 96.5 51.7Q96.8 52.4 96.8 53.4L96.8 53.4L96.8 60.7L94.0 60.7L94.0 59.2L93.9 59.2Q93.6 59.7 93.2 60.1Q92.7 60.5 92.1 60.7Q91.5 60.9 90.7 60.9ZM91.6 58.8L91.6 58.8Q92.2 58.8 92.7 58.6Q93.3 58.3 93.6 57.9Q93.8 57.4 93.8 56.8L93.8 56.8L93.8 55.7Q93.7 55.8 93.5 55.8Q93.2 55.9 92.9 56.0Q92.6 56.0 92.3 56.1Q92.0 56.1 91.7 56.2L91.7 56.2Q91.2 56.2 90.8 56.4Q90.4 56.6 90.2 56.9Q90.0 57.1 90.0 57.6L90.0 57.6Q90.0 58.2 90.4 58.5Q90.9 58.8 91.6 58.8ZM98.9 46.2L101.9 46.2L101.9 60.7L98.9 60.7L98.9 46.2ZM107.1 60.9L107.1 60.9Q106.1 60.9 105.2 60.6Q104.4 60.2 104.0 59.5Q103.5 58.8 103.5 57.7L103.5 57.7Q103.5 56.8 103.8 56.1Q104.2 55.5 104.7 55.2Q105.3 54.8 106.0 54.6Q106.8 54.4 107.6 54.3L107.6 54.3Q108.5 54.2 109.1 54.1Q109.7 54.0 110.0 53.9Q110.2 53.7 110.2 53.3L110.2 53.3L110.2 53.3Q110.2 52.6 109.8 52.2Q109.4 51.9 108.6 51.9L108.6 51.9Q107.8 51.9 107.3 52.2Q106.8 52.6 106.7 53.1L106.7 53.1L103.9 52.9Q104.1 51.9 104.7 51.2Q105.3 50.5 106.3 50.1Q107.3 49.7 108.6 49.7L108.6 49.7Q109.5 49.7 110.4 49.9Q111.2 50.1 111.9 50.5Q112.5 51.0 112.9 51.7Q113.3 52.4 113.3 53.4L113.3 53.4L113.3 60.7L110.4 60.7L110.4 59.2L110.3 59.2Q110.0 59.7 109.6 60.1Q109.2 60.5 108.5 60.7Q107.9 60.9 107.1 60.9ZM108.0 58.8L108.0 58.8Q108.6 58.8 109.2 58.6Q109.7 58.3 110.0 57.9Q110.2 57.4 110.2 56.8L110.2 56.8L110.2 55.7Q110.1 55.8 109.9 55.8Q109.6 55.9 109.3 56.0Q109.0 56.0 108.7 56.1Q108.4 56.1 108.1 56.2L108.1 56.2Q107.6 56.2 107.2 56.4Q106.8 56.6 106.6 56.9Q106.4 57.1 106.4 57.6L106.4 57.6Q106.4 58.2 106.8 58.5Q107.3 58.8 108.0 58.8ZM115.3 61.2L115.3 49.8L118.3 49.8L118.3 61.3Q118.3 62.5 117.8 63.3Q117.3 64.1 116.4 64.4Q115.5 64.8 114.2 64.8L114.2 64.8Q114.0 64.8 113.9 64.8Q113.7 64.8 113.6 64.8L113.6 64.8L113.6 62.4Q113.7 62.4 113.8 62.4Q113.9 62.4 114.0 62.4L114.0 62.4Q114.7 62.4 115.0 62.1Q115.3 61.8 115.3 61.2L115.3 61.2ZM116.8 48.4L116.8 48.4Q116.1 48.4 115.6 48.0Q115.2 47.5 115.2 46.9L115.2 46.9Q115.2 46.2 115.6 45.8Q116.1 45.3 116.8 45.3L116.8 45.3Q117.5 45.3 118.0 45.8Q118.4 46.2 118.4 46.9L118.4 46.9Q118.4 47.5 118.0 48.0Q117.5 48.4 116.8 48.4ZM123.4 60.7L120.4 60.7L120.4 49.8L123.3 49.8L123.3 51.7L123.4 51.7Q123.8 50.8 124.6 50.2Q125.3 49.7 126.5 49.7L126.5 49.7Q127.6 49.7 128.4 50.2Q129.2 50.8 129.4 51.7L129.4 51.7L129.5 51.7Q129.9 50.8 130.7 50.2Q131.6 49.7 132.8 49.7L132.8 49.7Q134.3 49.7 135.3 50.6Q136.3 51.6 136.3 53.4L136.3 53.4L136.3 60.7L133.2 60.7L133.2 54.0Q133.2 53.1 132.8 52.6Q132.3 52.2 131.5 52.2L131.5 52.2Q130.7 52.2 130.3 52.7Q129.8 53.2 129.8 54.1L129.8 54.1L129.8 60.7L126.9 60.7L126.9 53.9Q126.9 53.1 126.4 52.6Q126.0 52.2 125.2 52.2L125.2 52.2Q124.7 52.2 124.3 52.4Q123.9 52.7 123.7 53.1Q123.4 53.6 123.4 54.2L123.4 54.2L123.4 60.7ZM141.4 60.9L141.4 60.9Q140.4 60.9 139.6 60.6Q138.8 60.2 138.3 59.5Q137.8 58.8 137.8 57.7L137.8 57.7Q137.8 56.8 138.1 56.1Q138.5 55.5 139.1 55.2Q139.6 54.8 140.4 54.6Q141.1 54.4 141.9 54.3L141.9 54.3Q142.9 54.2 143.4 54.1Q144.0 54.0 144.3 53.9Q144.6 53.7 144.6 53.3L144.6 53.3L144.6 53.3Q144.6 52.6 144.1 52.2Q143.7 51.9 142.9 51.9L142.9 51.9Q142.1 51.9 141.6 52.2Q141.1 52.6 141.0 53.1L141.0 53.1L138.2 52.9Q138.4 51.9 139.0 51.2Q139.7 50.5 140.6 50.1Q141.6 49.7 142.9 49.7L142.9 49.7Q143.9 49.7 144.7 49.9Q145.5 50.1 146.2 50.5Q146.8 51.0 147.2 51.7Q147.6 52.4 147.6 53.4L147.6 53.4L147.6 60.7L144.7 60.7L144.7 59.2L144.6 59.2Q144.4 59.7 143.9 60.1Q143.5 60.5 142.9 60.7Q142.2 60.9 141.4 60.9ZM142.3 58.8L142.3 58.8Q143.0 58.8 143.5 58.6Q144.0 58.3 144.3 57.9Q144.6 57.4 144.6 56.8L144.6 56.8L144.6 55.7Q144.4 55.8 144.2 55.8Q143.9 55.9 143.6 56.0Q143.3 56.0 143.0 56.1Q142.7 56.1 142.5 56.2L142.5 56.2Q141.9 56.2 141.5 56.4Q141.1 56.6 140.9 56.9Q140.7 57.1 140.7 57.6L140.7 57.6Q140.7 58.2 141.2 58.5Q141.6 58.8 142.3 58.8ZM152.6 60.7L149.6 60.7L149.6 49.8L152.5 49.8L152.5 51.7L152.7 51.7Q153.0 50.7 153.7 50.2Q154.4 49.7 155.3 49.7L155.3 49.7Q155.5 49.7 155.8 49.7Q156.0 49.7 156.2 49.8L156.2 49.8L156.2 52.4Q156.0 52.4 155.6 52.3Q155.3 52.3 154.9 52.3L154.9 52.3Q154.3 52.3 153.8 52.6Q153.2 52.9 152.9 53.4Q152.6 53.9 152.6 54.5L152.6 54.5L152.6 60.7ZM160.5 60.7L157.5 60.7L157.5 49.8L160.5 49.8L160.5 60.7ZM159.0 48.4L159.0 48.4Q158.3 48.4 157.8 48.0Q157.3 47.5 157.3 46.9L157.3 46.9Q157.3 46.2 157.8 45.8Q158.3 45.3 159.0 45.3L159.0 45.3Q159.7 45.3 160.1 45.8Q160.6 46.2 160.6 46.9L160.6 46.9Q160.6 47.5 160.1 48.0Q159.7 48.4 159.0 48.4ZM169.6 56.1L169.6 56.1L169.6 49.8L172.6 49.8L172.6 60.7L169.7 60.7L169.7 58.7L169.6 58.7Q169.2 59.7 168.4 60.3Q167.5 60.9 166.3 60.9L166.3 60.9Q165.2 60.9 164.4 60.4Q163.5 59.9 163.1 59.0Q162.6 58.0 162.6 56.8L162.6 56.8L162.6 49.8L165.6 49.8L165.6 56.2Q165.6 57.2 166.1 57.7Q166.6 58.3 167.5 58.3L167.5 58.3Q168.0 58.3 168.5 58.1Q169.0 57.8 169.3 57.3Q169.6 56.8 169.6 56.1ZM183.8 52.9L183.8 52.9L181.0 53.1Q180.9 52.7 180.7 52.4Q180.5 52.2 180.1 52.0Q179.7 51.8 179.2 51.8L179.2 51.8Q178.5 51.8 178.0 52.1Q177.5 52.4 177.5 52.9L177.5 52.9Q177.5 53.3 177.8 53.6Q178.1 53.8 178.9 54.0L178.9 54.0L180.9 54.4Q182.5 54.7 183.2 55.4Q184.0 56.2 184.0 57.3L184.0 57.3Q184.0 58.4 183.4 59.2Q182.8 60.0 181.7 60.5Q180.6 60.9 179.2 60.9L179.2 60.9Q177.0 60.9 175.7 60.0Q174.4 59.1 174.2 57.6L174.2 57.6L177.2 57.4Q177.3 58.1 177.8 58.4Q178.4 58.8 179.2 58.8L179.2 58.8Q180.0 58.8 180.5 58.4Q180.9 58.1 180.9 57.6L180.9 57.6Q180.9 57.2 180.6 57.0Q180.3 56.7 179.6 56.6L179.6 56.6L177.7 56.2Q176.1 55.9 175.3 55.1Q174.5 54.3 174.5 53.1L174.5 53.1Q174.5 52.0 175.1 51.3Q175.7 50.5 176.7 50.1Q177.7 49.7 179.1 49.7L179.1 49.7Q181.2 49.7 182.4 50.5Q183.6 51.4 183.8 52.9ZM187.4 60.9L187.4 60.9Q186.7 60.9 186.2 60.4Q185.7 59.9 185.7 59.2L185.7 59.2Q185.7 58.5 186.2 58.0Q186.7 57.5 187.4 57.5L187.4 57.5Q188.1 57.5 188.6 58.0Q189.1 58.5 189.1 59.2L189.1 59.2Q189.1 59.7 188.9 60.1Q188.6 60.4 188.2 60.7Q187.8 60.9 187.4 60.9ZM196.2 60.9L196.2 60.9Q194.5 60.9 193.3 60.2Q192.1 59.5 191.4 58.2Q190.8 57.0 190.8 55.3L190.8 55.3Q190.8 53.6 191.5 52.4Q192.1 51.1 193.3 50.4Q194.5 49.7 196.2 49.7L196.2 49.7Q197.6 49.7 198.7 50.2Q199.7 50.7 200.4 51.6Q201.0 52.6 201.0 53.8L201.0 53.8L198.2 53.8Q198.1 53.0 197.6 52.5Q197.0 52.0 196.2 52.0L196.2 52.0Q195.5 52.0 195.0 52.4Q194.5 52.8 194.2 53.5Q193.9 54.2 193.9 55.3L193.9 55.3Q193.9 56.3 194.2 57.0Q194.5 57.8 195.0 58.2Q195.5 58.5 196.2 58.5L196.2 58.5Q196.7 58.5 197.1 58.3Q197.6 58.1 197.8 57.7Q198.1 57.3 198.2 56.7L198.2 56.7L201.0 56.7Q201.0 58.0 200.4 58.9Q199.8 59.9 198.7 60.4Q197.6 60.9 196.2 60.9ZM207.6 60.9L207.6 60.9Q205.9 60.9 204.7 60.2Q203.5 59.5 202.9 58.3Q202.2 57.0 202.2 55.3L202.2 55.3Q202.2 53.6 202.9 52.4Q203.5 51.1 204.7 50.4Q205.9 49.7 207.6 49.7L207.6 49.7Q209.3 49.7 210.5 50.4Q211.7 51.1 212.3 52.4Q213.0 53.6 213.0 55.3L213.0 55.3Q213.0 57.0 212.3 58.3Q211.7 59.5 210.5 60.2Q209.3 60.9 207.6 60.9ZM207.6 58.6L207.6 58.6Q208.4 58.6 208.9 58.2Q209.4 57.7 209.6 57.0Q209.9 56.2 209.9 55.3L209.9 55.3Q209.9 54.3 209.6 53.6Q209.4 52.8 208.9 52.4Q208.4 52.0 207.6 52.0L207.6 52.0Q206.9 52.0 206.3 52.4Q205.8 52.8 205.6 53.6Q205.3 54.3 205.3 55.3L205.3 55.3Q205.3 56.2 205.6 57.0Q205.8 57.7 206.3 58.2Q206.9 58.6 207.6 58.6ZM217.7 60.7L214.6 60.7L214.6 49.8L217.5 49.8L217.5 51.7L217.6 51.7Q218.0 50.8 218.8 50.2Q219.6 49.7 220.7 49.7L220.7 49.7Q221.8 49.7 222.6 50.2Q223.4 50.8 223.6 51.7L223.6 51.7L223.8 51.7Q224.1 50.8 225.0 50.2Q225.8 49.7 227.0 49.7L227.0 49.7Q228.6 49.7 229.5 50.6Q230.5 51.6 230.5 53.4L230.5 53.4L230.5 60.7L227.5 60.7L227.5 54.0Q227.5 53.1 227.0 52.6Q226.5 52.2 225.8 52.2L225.8 52.2Q224.9 52.2 224.5 52.7Q224.0 53.2 224.0 54.1L224.0 54.1L224.0 60.7L221.1 60.7L221.1 53.9Q221.1 53.1 220.6 52.6Q220.2 52.2 219.4 52.2L219.4 52.2Q218.9 52.2 218.5 52.4Q218.1 52.7 217.9 53.1Q217.7 53.6 217.7 54.2L217.7 54.2L217.7 60.7Z "/><mask id="satori_om-id-1"><rect x="267" y="267" width="667" height="96" fill="#fff"/></mask><rect x="267" y="267" width="667" height="96" fill="black"/><path fill="white" d="M327.3 304.5L318.4 304.5L318.4 299.4L342.3 299.4L342.3 304.5L333.4 304.5L333.4 328.5L327.3 328.5L327.3 304.5ZM352.6 328.9L352.6 328.9Q349.2 328.9 346.8 327.5Q344.4 326.2 343.1 323.6Q341.8 321.1 341.8 317.7L341.8 317.7Q341.8 314.3 343.1 311.8Q344.4 309.2 346.8 307.8Q349.1 306.4 352.3 306.4L352.3 306.4Q354.5 306.4 356.4 307.1Q358.2 307.7 359.6 309.1Q361.0 310.5 361.8 312.6Q362.6 314.7 362.6 317.5L362.6 317.5L362.6 319.1L344.2 319.1L344.2 315.4L356.9 315.4Q356.9 314.1 356.3 313.0Q355.8 312.0 354.8 311.5Q353.8 310.9 352.4 310.9L352.4 310.9Q351.1 310.9 350.0 311.5Q349.0 312.2 348.4 313.2Q347.8 314.3 347.7 315.6L347.7 315.6L347.7 319.1Q347.7 320.7 348.3 321.9Q349.0 323.1 350.1 323.7Q351.2 324.4 352.7 324.4L352.7 324.4Q353.7 324.4 354.5 324.1Q355.4 323.8 356.0 323.2Q356.6 322.7 356.9 321.9L356.9 321.9L362.5 322.2Q362.0 324.2 360.7 325.7Q359.4 327.2 357.4 328.1Q355.3 328.9 352.6 328.9ZM376.1 328.9L376.1 328.9Q372.7 328.9 370.3 327.5Q367.9 326.0 366.6 323.5Q365.4 321.0 365.4 317.7L365.4 317.7Q365.4 314.3 366.7 311.8Q368.0 309.2 370.4 307.8Q372.8 306.4 376.1 306.4L376.1 306.4Q378.9 306.4 381.1 307.4Q383.2 308.4 384.5 310.3Q385.7 312.2 385.8 314.7L385.8 314.7L380.1 314.7Q379.9 313.1 378.9 312.1Q377.8 311.1 376.2 311.1L376.2 311.1Q374.8 311.1 373.7 311.8Q372.7 312.6 372.1 314.1Q371.5 315.5 371.5 317.6L371.5 317.6Q371.5 319.7 372.1 321.1Q372.7 322.6 373.7 323.3Q374.8 324.1 376.2 324.1L376.2 324.1Q377.2 324.1 378.0 323.7Q378.9 323.3 379.4 322.4Q380.0 321.6 380.1 320.5L380.1 320.5L385.8 320.5Q385.7 323.0 384.5 324.9Q383.3 326.8 381.1 327.8Q379.0 328.9 376.1 328.9ZM395.5 315.9L395.5 315.9L395.5 328.5L389.4 328.5L389.4 299.4L395.3 299.4L395.3 310.5L395.5 310.5Q396.3 308.6 397.9 307.5Q399.6 306.4 402.1 306.4L402.1 306.4Q404.3 306.4 406.0 307.4Q407.7 308.3 408.7 310.2Q409.6 312.0 409.6 314.6L409.6 314.6L409.6 328.5L403.6 328.5L403.6 315.7Q403.6 313.6 402.5 312.5Q401.5 311.4 399.7 311.4L399.7 311.4Q398.4 311.4 397.5 311.9Q396.5 312.5 396.0 313.5Q395.5 314.5 395.5 315.9ZM415.6 324.5L420.6 324.5L420.5 326.1Q420.3 327.9 419.8 329.8Q419.3 331.7 418.7 333.2Q418.1 334.7 417.8 335.6L417.8 335.6L413.9 335.6Q414.1 334.7 414.5 333.2Q414.8 331.7 415.2 329.9Q415.5 328.0 415.6 326.1L415.6 326.1L415.6 324.5Z M444.1 328.5L438.1 328.5L438.1 299.4L444.2 299.4L444.2 310.3L444.3 310.3Q444.7 309.4 445.5 308.5Q446.3 307.6 447.5 307.0Q448.7 306.4 450.5 306.4L450.5 306.4Q452.9 306.4 455.0 307.6Q457.0 308.9 458.2 311.4Q459.4 313.8 459.4 317.6L459.4 317.6Q459.4 321.2 458.2 323.8Q457.0 326.3 455.0 327.5Q453.0 328.8 450.5 328.8L450.5 328.8Q448.8 328.8 447.5 328.2Q446.3 327.7 445.5 326.8Q444.8 325.9 444.3 325.0L444.3 325.0L444.1 325.0L444.1 328.5ZM444.0 317.6L444.0 317.6Q444.0 319.5 444.6 321.0Q445.1 322.4 446.1 323.2Q447.2 324.0 448.6 324.0L448.6 324.0Q450.1 324.0 451.1 323.2Q452.1 322.4 452.7 320.9Q453.2 319.5 453.2 317.6L453.2 317.6Q453.2 315.7 452.7 314.2Q452.2 312.8 451.1 312.0Q450.1 311.2 448.6 311.2L448.6 311.2Q447.1 311.2 446.1 312.0Q445.1 312.7 444.6 314.2Q444.0 315.6 444.0 317.6ZM472.9 328.9L472.9 328.9Q469.6 328.9 467.2 327.5Q464.8 326.1 463.5 323.5Q462.2 321.0 462.2 317.7L462.2 317.7Q462.2 314.3 463.5 311.7Q464.8 309.2 467.2 307.8Q469.6 306.4 472.9 306.4L472.9 306.4Q476.3 306.4 478.7 307.8Q481.1 309.2 482.4 311.7Q483.7 314.3 483.7 317.7L483.7 317.7Q483.7 321.0 482.4 323.5Q481.1 326.1 478.7 327.5Q476.3 328.9 472.9 328.9ZM473.0 324.2L473.0 324.2Q474.5 324.2 475.5 323.4Q476.5 322.5 477.0 321.0Q477.5 319.5 477.5 317.6L477.5 317.6Q477.5 315.7 477.0 314.2Q476.5 312.7 475.5 311.9Q474.5 311.0 473.0 311.0L473.0 311.0Q471.5 311.0 470.4 311.9Q469.4 312.7 468.9 314.2Q468.4 315.7 468.4 317.6L468.4 317.6Q468.4 319.5 468.9 321.0Q469.4 322.5 470.4 323.4Q471.5 324.2 473.0 324.2ZM485.3 306.7L491.6 306.7L495.6 314.3L499.7 306.7L505.9 306.7L499.6 317.6L506.0 328.5L499.9 328.5L495.6 320.9L491.3 328.5L485.1 328.5L491.6 317.6L485.3 306.7ZM515.2 328.5L509.1 328.5L509.1 306.7L515.2 306.7L515.2 328.5ZM512.2 303.8L512.2 303.8Q510.8 303.8 509.9 302.9Q508.9 302.0 508.9 300.8L508.9 300.8Q508.9 299.5 509.9 298.6Q510.8 297.7 512.2 297.7L512.2 297.7Q513.5 297.7 514.5 298.6Q515.4 299.5 515.4 300.8L515.4 300.8Q515.4 302.0 514.5 302.9Q513.5 303.8 512.2 303.8ZM525.7 315.9L525.7 315.9L525.7 328.5L519.7 328.5L519.7 306.7L525.5 306.7L525.5 310.5L525.7 310.5Q526.4 308.6 528.1 307.5Q529.9 306.4 532.3 306.4L532.3 306.4Q534.6 306.4 536.2 307.4Q537.9 308.4 538.9 310.2Q539.8 312.0 539.8 314.6L539.8 314.6L539.8 328.5L533.8 328.5L533.8 315.7Q533.8 313.7 532.7 312.5Q531.7 311.4 529.9 311.4L529.9 311.4Q528.7 311.4 527.7 311.9Q526.8 312.5 526.3 313.5Q525.8 314.5 525.7 315.9ZM554.1 337.1L554.1 337.1Q551.1 337.1 549.0 336.3Q546.9 335.5 545.7 334.1Q544.5 332.7 544.1 331.0L544.1 331.0L549.7 330.3Q550.0 330.9 550.5 331.5Q551.1 332.1 552.0 332.4Q552.9 332.8 554.2 332.8L554.2 332.8Q556.2 332.8 557.5 331.8Q558.8 330.8 558.8 328.6L558.8 328.6L558.8 324.6L558.5 324.6Q558.1 325.5 557.3 326.3Q556.5 327.1 555.3 327.7Q554.0 328.2 552.3 328.2L552.3 328.2Q549.8 328.2 547.8 327.0Q545.8 325.9 544.6 323.5Q543.4 321.1 543.4 317.5L543.4 317.5Q543.4 313.8 544.6 311.3Q545.9 308.8 547.9 307.6Q549.9 306.4 552.3 306.4L552.3 306.4Q554.1 306.4 555.3 307.0Q556.6 307.6 557.3 308.5Q558.1 309.4 558.5 310.3L558.5 310.3L558.7 310.3L558.7 306.7L564.7 306.7L564.7 328.7Q564.7 331.5 563.4 333.3Q562.0 335.2 559.6 336.2Q557.2 337.1 554.1 337.1ZM554.2 323.6L554.2 323.6Q555.7 323.6 556.7 322.9Q557.7 322.2 558.2 320.8Q558.8 319.4 558.8 317.5L558.8 317.5Q558.8 315.6 558.3 314.2Q557.7 312.7 556.7 312.0Q555.7 311.2 554.2 311.2L554.2 311.2Q552.7 311.2 551.7 312.0Q550.7 312.8 550.1 314.2Q549.6 315.6 549.6 317.5L549.6 317.5Q549.6 319.4 550.1 320.8Q550.7 322.1 551.7 322.9Q552.7 323.6 554.2 323.6Z M585.2 328.9L585.2 328.9Q583.2 328.9 581.5 328.2Q579.9 327.4 578.9 326.0Q578.0 324.5 578.0 322.4L578.0 322.4Q578.0 320.6 578.7 319.3Q579.3 318.1 580.5 317.3Q581.6 316.6 583.1 316.2Q584.6 315.8 586.2 315.7L586.2 315.7Q588.1 315.5 589.3 315.3Q590.4 315.1 591.0 314.8Q591.5 314.4 591.5 313.7L591.5 313.7L591.5 313.6Q591.5 312.3 590.6 311.5Q589.8 310.8 588.2 310.8L588.2 310.8Q586.6 310.8 585.6 311.5Q584.7 312.2 584.4 313.3L584.4 313.3L578.8 312.8Q579.2 310.9 580.4 309.4Q581.7 307.9 583.7 307.2Q585.7 306.4 588.3 306.4L588.3 306.4Q590.1 306.4 591.8 306.8Q593.4 307.2 594.7 308.1Q596.0 309.0 596.8 310.4Q597.5 311.8 597.5 313.8L597.5 313.8L597.5 328.5L591.8 328.5L591.8 325.4L591.6 325.4Q591.1 326.5 590.2 327.2Q589.3 328.0 588.1 328.5Q586.9 328.9 585.2 328.9ZM587.0 324.7L587.0 324.7Q588.3 324.7 589.3 324.2Q590.4 323.6 590.9 322.7Q591.5 321.8 591.5 320.7L591.5 320.7L591.5 318.4Q591.2 318.5 590.7 318.7Q590.3 318.8 589.6 319.0Q589.0 319.1 588.4 319.2Q587.8 319.3 587.3 319.3L587.3 319.3Q586.2 319.5 585.5 319.8Q584.7 320.2 584.2 320.8Q583.8 321.3 583.8 322.2L583.8 322.2Q583.8 323.4 584.7 324.1Q585.6 324.7 587.0 324.7ZM608.0 315.9L608.0 315.9L608.0 328.5L601.9 328.5L601.9 306.7L607.7 306.7L607.7 310.5L607.9 310.5Q608.7 308.6 610.4 307.5Q612.1 306.4 614.5 306.4L614.5 306.4Q616.8 306.4 618.5 307.4Q620.1 308.4 621.1 310.2Q622.0 312.0 622.0 314.6L622.0 314.6L622.0 328.5L616.0 328.5L616.0 315.7Q616.0 313.7 614.9 312.5Q613.9 311.4 612.1 311.4L612.1 311.4Q610.9 311.4 609.9 311.9Q609.0 312.5 608.5 313.5Q608.0 314.5 608.0 315.9ZM634.5 328.8L634.5 328.8Q632.0 328.8 630.0 327.5Q628.0 326.3 626.8 323.8Q625.7 321.2 625.7 317.6L625.7 317.6Q625.7 313.8 626.9 311.4Q628.1 308.9 630.1 307.6Q632.1 306.4 634.5 306.4L634.5 306.4Q636.3 306.4 637.5 307.0Q638.8 307.6 639.5 308.5Q640.3 309.4 640.7 310.3L640.7 310.3L640.9 310.3L640.9 299.4L646.9 299.4L646.9 328.5L640.9 328.5L640.9 325.0L640.7 325.0Q640.3 325.9 639.5 326.8Q638.7 327.7 637.5 328.2Q636.3 328.8 634.5 328.8ZM636.4 324.0L636.4 324.0Q637.9 324.0 638.9 323.2Q639.9 322.4 640.5 321.0Q641.0 319.5 641.0 317.6L641.0 317.6Q641.0 315.6 640.5 314.2Q639.9 312.7 638.9 312.0Q637.9 311.2 636.4 311.2L636.4 311.2Q634.9 311.2 633.9 312.0Q632.9 312.8 632.4 314.2Q631.8 315.7 631.8 317.6L631.8 317.6Q631.8 319.5 632.4 320.9Q632.9 322.4 633.9 323.2Q634.9 324.0 636.4 324.0Z M666.6 336.7L660.5 336.7L660.5 306.7L666.5 306.7L666.5 310.3L666.7 310.3Q667.1 309.4 667.9 308.5Q668.7 307.6 669.9 307.0Q671.1 306.4 673.0 306.4L673.0 306.4Q675.3 306.4 677.4 307.6Q679.4 308.9 680.6 311.4Q681.8 313.8 681.8 317.6L681.8 317.6Q681.8 321.2 680.6 323.8Q679.4 326.3 677.4 327.5Q675.4 328.8 672.9 328.8L672.9 328.8Q671.2 328.8 669.9 328.2Q668.7 327.7 667.9 326.8Q667.2 325.9 666.7 325.0L666.7 325.0L666.6 325.0L666.6 336.7ZM666.4 317.6L666.4 317.6Q666.4 319.5 667.0 321.0Q667.5 322.4 668.5 323.2Q669.6 324.0 671.0 324.0L671.0 324.0Q672.5 324.0 673.5 323.2Q674.5 322.4 675.1 320.9Q675.6 319.5 675.6 317.6L675.6 317.6Q675.6 315.7 675.1 314.2Q674.6 312.8 673.5 312.0Q672.5 311.2 671.0 311.2L671.0 311.2Q669.5 311.2 668.5 312.0Q667.5 312.7 667.0 314.2Q666.4 315.6 666.4 317.6ZM691.5 315.9L691.5 315.9L691.5 328.5L685.5 328.5L685.5 299.4L691.4 299.4L691.4 310.5L691.6 310.5Q692.4 308.6 694.0 307.5Q695.7 306.4 698.1 306.4L698.1 306.4Q700.4 306.4 702.1 307.4Q703.8 308.3 704.8 310.2Q705.7 312.0 705.7 314.6L705.7 314.6L705.7 328.5L699.6 328.5L699.6 315.7Q699.6 313.6 698.6 312.5Q697.6 311.4 695.7 311.4L695.7 311.4Q694.5 311.4 693.6 311.9Q692.6 312.5 692.1 313.5Q691.6 314.5 691.5 315.9ZM716.2 328.5L710.1 328.5L710.1 306.7L716.2 306.7L716.2 328.5ZM713.2 303.8L713.2 303.8Q711.8 303.8 710.9 302.9Q709.9 302.0 709.9 300.8L709.9 300.8Q709.9 299.5 710.9 298.6Q711.8 297.7 713.2 297.7L713.2 297.7Q714.5 297.7 715.5 298.6Q716.4 299.5 716.4 300.8L716.4 300.8Q716.4 302.0 715.5 302.9Q714.5 303.8 713.2 303.8ZM720.7 299.4L726.8 299.4L726.8 328.5L720.7 328.5L720.7 299.4ZM741.1 328.9L741.1 328.9Q737.8 328.9 735.4 327.5Q733.0 326.1 731.7 323.5Q730.4 321.0 730.4 317.7L730.4 317.7Q730.4 314.3 731.7 311.7Q733.0 309.2 735.4 307.8Q737.8 306.4 741.1 306.4L741.1 306.4Q744.4 306.4 746.8 307.8Q749.2 309.2 750.5 311.7Q751.9 314.3 751.9 317.7L751.9 317.7Q751.9 321.0 750.5 323.5Q749.2 326.1 746.8 327.5Q744.4 328.9 741.1 328.9ZM741.1 324.2L741.1 324.2Q742.7 324.2 743.7 323.4Q744.7 322.5 745.2 321.0Q745.7 319.5 745.7 317.6L745.7 317.6Q745.7 315.7 745.2 314.2Q744.7 312.7 743.7 311.9Q742.7 311.0 741.1 311.0L741.1 311.0Q739.6 311.0 738.6 311.9Q737.6 312.7 737.0 314.2Q736.5 315.7 736.5 317.6L736.5 317.6Q736.5 319.5 737.0 321.0Q737.6 322.5 738.6 323.4Q739.6 324.2 741.1 324.2ZM773.6 312.9L773.6 312.9L768.1 313.2Q768.0 312.5 767.5 311.9Q767.0 311.4 766.3 311.0Q765.5 310.7 764.4 310.7L764.4 310.7Q763.0 310.7 762.1 311.3Q761.1 311.8 761.1 312.8L761.1 312.8Q761.1 313.6 761.7 314.1Q762.4 314.7 763.9 315.0L763.9 315.0L767.8 315.8Q771.0 316.5 772.6 317.9Q774.1 319.4 774.1 321.7L774.1 321.7Q774.1 323.9 772.9 325.5Q771.6 327.1 769.4 328.0Q767.3 328.9 764.4 328.9L764.4 328.9Q760.1 328.9 757.5 327.1Q755.0 325.3 754.5 322.2L754.5 322.2L760.5 321.8Q760.7 323.2 761.8 323.9Q762.8 324.5 764.4 324.5L764.4 324.5Q766.0 324.5 767.0 323.9Q768.0 323.3 768.0 322.3L768.0 322.3Q768.0 321.5 767.3 321.0Q766.6 320.4 765.2 320.2L765.2 320.2L761.4 319.4Q758.2 318.8 756.7 317.2Q755.1 315.6 755.1 313.2L755.1 313.2Q755.1 311.1 756.2 309.5Q757.4 308.0 759.5 307.2Q761.6 306.4 764.3 306.4L764.3 306.4Q768.5 306.4 770.9 308.1Q773.2 309.9 773.6 312.9ZM787.5 328.9L787.5 328.9Q784.2 328.9 781.8 327.5Q779.4 326.1 778.1 323.5Q776.8 321.0 776.8 317.7L776.8 317.7Q776.8 314.3 778.1 311.7Q779.4 309.2 781.8 307.8Q784.2 306.4 787.5 306.4L787.5 306.4Q790.8 306.4 793.2 307.8Q795.6 309.2 796.9 311.7Q798.2 314.3 798.2 317.7L798.2 317.7Q798.2 321.0 796.9 323.5Q795.6 326.1 793.2 327.5Q790.8 328.9 787.5 328.9ZM787.5 324.2L787.5 324.2Q789.0 324.2 790.0 323.4Q791.0 322.5 791.6 321.0Q792.1 319.5 792.1 317.6L792.1 317.6Q792.1 315.7 791.6 314.2Q791.0 312.7 790.0 311.9Q789.0 311.0 787.5 311.0L787.5 311.0Q786.0 311.0 785.0 311.9Q783.9 312.7 783.4 314.2Q782.9 315.7 782.9 317.6L782.9 317.6Q782.9 319.5 783.4 321.0Q783.9 322.5 785.0 323.4Q786.0 324.2 787.5 324.2ZM807.9 336.7L801.9 336.7L801.9 306.7L807.8 306.7L807.8 310.3L808.1 310.3Q808.5 309.4 809.3 308.5Q810.0 307.6 811.2 307.0Q812.5 306.4 814.3 306.4L814.3 306.4Q816.7 306.4 818.7 307.6Q820.7 308.9 821.9 311.4Q823.1 313.8 823.1 317.6L823.1 317.6Q823.1 321.2 822.0 323.8Q820.8 326.3 818.8 327.5Q816.8 328.8 814.3 328.8L814.3 328.8Q812.5 328.8 811.3 328.2Q810.1 327.7 809.3 326.8Q808.5 325.9 808.1 325.0L808.1 325.0L807.9 325.0L807.9 336.7ZM807.8 317.6L807.8 317.6Q807.8 319.5 808.3 321.0Q808.9 322.4 809.9 323.2Q810.9 324.0 812.4 324.0L812.4 324.0Q813.9 324.0 814.9 323.2Q815.9 322.4 816.4 320.9Q817.0 319.5 817.0 317.6L817.0 317.6Q817.0 315.7 816.4 314.2Q815.9 312.8 814.9 312.0Q813.9 311.2 812.4 311.2L812.4 311.2Q810.9 311.2 809.9 312.0Q808.9 312.7 808.3 314.2Q807.8 315.6 807.8 317.6ZM832.9 315.9L832.9 315.9L832.9 328.5L826.8 328.5L826.8 299.4L832.7 299.4L832.7 310.5L833.0 310.5Q833.7 308.6 835.4 307.5Q837.0 306.4 839.5 306.4L839.5 306.4Q841.8 306.4 843.5 307.4Q845.2 308.3 846.1 310.2Q847.1 312.0 847.0 314.6L847.0 314.6L847.0 328.5L841.0 328.5L841.0 315.7Q841.0 313.6 840.0 312.5Q838.9 311.4 837.1 311.4L837.1 311.4Q835.9 311.4 834.9 311.9Q834.0 312.5 833.4 313.5Q832.9 314.5 832.9 315.9ZM854.4 336.7L854.4 336.7Q853.3 336.7 852.3 336.5Q851.3 336.3 850.6 336.0L850.6 336.0L852.0 331.5Q853.1 331.8 853.9 331.9Q854.8 331.9 855.4 331.5Q856.0 331.0 856.4 330.0L856.4 330.0L856.8 329.1L849.0 306.7L855.3 306.7L859.8 322.7L860.1 322.7L864.6 306.7L871.0 306.7L862.6 330.8Q861.9 332.6 860.9 333.9Q859.9 335.2 858.3 335.9Q856.7 336.7 854.4 336.7ZM876.0 328.8L876.0 328.8Q874.6 328.8 873.6 327.8Q872.6 326.8 872.6 325.4L872.6 325.4Q872.6 324.0 873.6 323.0Q874.6 322.1 876.0 322.1L876.0 322.1Q877.4 322.1 878.4 323.0Q879.4 324.0 879.4 325.4L879.4 325.4Q879.4 326.4 878.9 327.1Q878.4 327.9 877.7 328.4Q876.9 328.8 876.0 328.8Z "/></svg>