<svg xmlns="http://www.w3.org/2000/svg" xml:space="preserve" style="enable-background:new 0 0 19.6 28" viewBox="0 0 19.6 28" fill="#FF2E00"><path d="M15.3 0H5.9C3.5 0 1.5 2 1.5 4.4V6c.2 0 .4-.1.6-.1h4.6c2 0 3.5 1.6 3.5 3.6h2.5c1.3 0 2.3-1 2.3-2.3V5.9c0-.4.3-.7.7-.7.4 0 .7.3.7.7v1.3c0 2.1-1.7 3.7-3.7 3.7H9.9c-.3.8-.9 1.4-1.6 1.8 1.3 1 2.2 2.6 2.2 4.4 0 .4-.3.7-.7.7-.4 0-.7-.3-.7-.7 0-2.2-1.8-4-4-4h-.9c-.4 0-.7-.3-.7-.7 0-.4.3-.7.7-.7h2.5c1.2 0 2.1-1 2.1-2.2 0-1.2-1-2.2-2.1-2.2H2.1C1 7.4 0 8.4 0 9.6V15.5c.1 2.6 1.8 4 2.4 4.4.1.1.3.1.4.1H18c.2 0 .5-.1.6-.3.4-.5 1-1.8 1-4.3v-11C19.6 2 17.7 0 15.3 0zM17.4 21.9H3.8c-.4 0-.7.3-.7.7v3.8c-.1.9.6 1.6 1.4 1.6h12.1c.8 0 1.5-.7 1.5-1.5v-3.8c0-.4-.3-.8-.7-.8zM13 25.6c0 .4-.3.7-.7.7H8.8c-.4 0-.7-.3-.7-.7v-1.2c0-.4.3-.7.7-.7h3.5c.4 0 .7.3.7.7v1.2z"/></svg>