<svg xmlns="http://www.w3.org/2000/svg" xml:space="preserve" style="enable-background:new 0 0 28 28" viewBox="0 0 28 28" fill="#FF2E00"><path d="M27.5 8c-.3 0-.5.2-.5.5v.3L14.5 1.2V.5c0-.3-.2-.5-.5-.5s-.5.2-.5.5v.7L1 8.8v-.3C1 8.2.8 8 .5 8s-.5.2-.5.5V18.8c0 .2.1.3.2.4L13.7 28c.2.1.4.1.5 0l13.5-8.8c.1-.1.2-.3.2-.4V8.5c.1-.3-.1-.5-.4-.5zm-.5 5.8-.7-.4.7-.4v.8zm-1.6-1-.9-.5 1.2-.8.9.5-1.2.8zM14 7.1l8.6 5.2-8.1 5.3v-1.1c0-.3-.2-.5-.5-.5s-.5.2-.5.5v1.1l-8.1-5.3L14 7.1zm-.5 11.7v1.3l-10-6.6.9-.5 9.1 5.8zm1 0 9.1-5.9.9.5-10 6.6v-1.2zm9-7.1-9-5.5V4.9L24.7 11l-1.2.7zm-10-5.5-9 5.5-1.2-.8 10.2-6.1v1.4zm-10 6.1-.9.5-1.2-.8.9-.5 1.2.8zm-2.5.6.7.4-.7.5v-.9zM2.6 14l10.9 7.3v1.3l-12-8 1.1-.6zm11.9 8.5v-1.2L25.4 14l1 .6-11.9 7.9c0 .1 0 0 0 0zM27 11.1l-.4-.2.4-.3v.5zm-.4-1.4-.9.6-11.2-6.6V2.4l12.1 7.3zM13.5 2.4v1.3L2.4 10.3l-1-.6 12.1-7.3zM1.4 10.9l-.4.2v-.5l.4.3zm12.6 16L1 18.5v-3L13.7 24c.2.1.4.1.6 0L27 15.4v3l-13 8.5z" style="fill-rule:evenodd;clip-rule:evenodd"/></svg>