<svg xmlns="http://www.w3.org/2000/svg" xml:space="preserve" viewBox="0 0 125.6 130.2"><path fill="#EF3924" fill-rule="evenodd" d="m125.1 90.6.1-.1.1-.1c.2-.2.3-.5.3-.8V37.4c0-1.2-1-2.1-2.1-2.1s-2.1 1-2.1 2.1v1.4L66.3 6.3V2.1c0-1.2-1-2.1-2.1-2.1C63 0 62 1 62 2.1v4.1L6.9 38.7v-1.4c0-1.2-1-2.1-2.1-2.1s-2.1 1-2.1 2.1v23.9c-.9-.2-1.8.1-2.3.9-.6 1-.4 2.3.6 3l1.7 1.1v19.4c-.9-.2-1.8.1-2.3.9-.6 1-.4 2.3.6 3l17.3 11.3 12.1 7.9V119c0 .6.3 1.2.7 1.6.5.4 1.1.6 1.7.5l6.4-.8 7.1 8.6c.4.5 1 .8 1.7.8.2 0 .5 0 .7-.1.8-.3 1.4-1.1 1.4-2v-6.1l12.8 8.3h.1l.1.1H65.3l.1-.1L124.6 91l.1-.1.1-.1c.2-.1.3-.2.3-.2zm-61-59.1 38.4 22.6-36.2 23.6v-5.1c0-1.2-1-2.1-2.1-2.1-1.2 0-2.1 1-2.1 2.1v5.1L25.8 54.2l38.3-22.7zm2.2 51.3 40.3-26.3 4.7 2.8-45 29.3v-5.8zm-4.3 0v5.8L17 59.3l4.7-2.8L62 82.8zm4.3 11 49.2-32 4.8 2.8-54 35.2v-6zm55-33.5-1.9-1.1 1.9-1.2v2.3zm0-11.1-1.8-1 1.8-1.2v2.2zm-1 4.3-4.9 3.2-4.7-2.8 4.9-3.2 4.7 2.8zm-13.8-2L66.3 27.8v-6.1l45.2 26.6-5 3.2zM62 27.8 21.8 51.5l-4.9-3.2L62 21.7v6.1zM17.6 54l-4.7 2.8L8 53.5l4.7-2.8 4.9 3.3zm-8.8 5.2-1.9 1.1V58l1.9 1.2zm-1.9-10V47l1.8 1.2-1.8 1zM8 64.6l4.8-2.8 49.2 32v6L8 64.6zm111.9-21.8-4.4 2.9-49.2-29v-5.5l53.6 31.6zM62 16.8l-49.2 29-4.4-2.9L62 11.2v5.6zM45.9 121.6l-4-4.9c-.4-.5-1-.8-1.7-.8h-.3l-5.2.6V98.9l11.2 7.4V121.6zm3.3-18.2L33.7 93.1c-.7-.4-1.5-.5-2.2-.1-.7.4-1.1 1.1-1.1 1.9v8.6l-12-7.8-11.5-7.4V69l10.9 7.1h.1L62 104.9v19.2l-11.9-7.7v-11.2c0-.8-.3-1.4-.9-1.8z" clip-rule="evenodd"/></svg>