<svg xmlns="http://www.w3.org/2000/svg" xml:space="preserve" viewBox="0 0 87 87.8" fill="#FF2E00"><path fill-rule="evenodd" d="M84.7 43.5V25.1c0-.8-.6-1.4-1.4-1.4-.8 0-1.4.6-1.4 1.4v.9L44.7 4.2V1.4c0-.8-.6-1.4-1.4-1.4-.8 0-1.4.6-1.4 1.4v2.8L4.7 26.1v-.9c0-.8-.6-1.4-1.4-1.4s-1.4.6-1.4 1.4v16.2c-.6-.1-1.2.1-1.6.6-.4.7-.2 1.6.4 2l1.1.7v.1c2 4.3 2.2 9.1.6 13.3l-.1-.1c-.7-.4-1.6-.2-2 .4-.4.7-.2 1.6.4 2L12.3 68l10.8 7v7.3c0 .3.1.5.3.7.2.2.5.2.7.2l4-.9 4.3 5.2c.2.2.4.3.6.3h.3c.3-.1.6-.4.6-.8v-4.9l8.5 5.5h.1s.1 0 .1.1H44l38-24.8h.1c2.5-1.8 3.4-3.9 4.1-5.9 1.5-4.4.9-9.6-1.5-13.5zm-40-35.9 36.2 21.3-3 1.9-33.2-19.5V7.6zm29.9 28.8 3.3-2.2 3.2 1.9-3.3 2.2-3.2-1.9zm.5 3.6L44.7 59.8v-3.9l27.2-17.7 3.2 1.8zM44.7 14.7l30.5 18-3.3 2.2-27.1-16v-4.2zm-2.9-7.1v3.7L8.7 30.8l-3-1.9L41.8 7.6zm0 55.7v4L5.4 43.6l3.2-1.9 33.2 21.6zM5.4 36.1l3.2-1.9 3.3 2.2-3.2 1.9-3.3-2.2zm6 3.9 3.2-1.9 27.2 17.7v3.9L11.4 40zm0-7.4 30.5-18v4.1l-27.1 16-3.4-2.1zm-6.7-.9 1.2.8-1.2.7v-1.5zm0 7.4 1.3.8-1.3.7v-1.5zm27.6 45.5-3.2-3.8c-.2-.2-.4-.3-.6-.3h-.2l-3.5.7V69.1l7.5 5v10.5zm10.1-.5L34 78.6v-4l9.2 6.1c-.2 1.1-.4 2.3-.8 3.4zm1-4.7L16.2 61.3c-.3-.2-.7-.1-.8.2-.2.3-.1.7.2.8l7.7 5.1v4.2l-9.2-6L10 63l-5.2-3.4c1.7-3.9 2-8.2.9-12.4l6.3 4.1 30 19.5c.9 2 1.3 4 1.4 5.9L30.3 68c-.2-.1-.4-.1-.5.1-.1.2-.1.4.1.5l13.6 9.1c0 .6-.1 1.1-.1 1.7zm-.1-31.9c-.8 0-1.4.6-1.4 1.4v3.4L17.4 36.5l25.9-15.3 25.9 15.3-24.5 15.9V49c0-.8-.6-1.5-1.4-1.5zm1.4 19.8v-4l33.2-21.6 3.2 1.9-36.4 23.7zm37.1-26.6-1.3-.7 1.3-.8v1.5zm0-7.5-1.2-.7 1.2-.8v1.5z" clip-rule="evenodd"/></svg>